<mxfile host="app.diagrams.net" modified="2022-05-24T03:16:56.412Z" agent="5.0 (Windows)" etag="lGjiSkcYttxYRQ9w_klN" version="18.0.6" type="github">
  <diagram id="yeHJUZkuFwGEJwCSzUV-">
    <mxGraphModel dx="2302" dy="941" grid="1" gridSize="10" guides="1" tooltips="1" connect="1" arrows="1" fold="1" page="1" pageScale="1" pageWidth="827" pageHeight="1169" math="0" shadow="0">
      <root>
        <mxCell id="0" />
        <mxCell id="1" parent="0" />
      </root>
    </mxGraphModel>
  </diagram>
</mxfile>
